<svg xmlns="http://www.w3.org/2000/svg" viewBox="0 0 512 512"><path d="M353 142.2H167.3l-37.4 277c-2.6 19.3 12.4 36.8 31.8 36.8h142" style="fill:#81bda4"/><path d="M384.1 456H241l-70.5-313.8h183.2l61.6 274.3c4.6 20-10.7 39.5-31.2 39.5z" style="fill:#e56a77"/><path d="M359.5 443.7H216.4c-4.3 0-8.1-3-9-7.2l-70.5-313.8c-.6-2.7 0-5.6 1.8-7.8s4.4-3.5 7.2-3.5h183.2c4.3 0 8.1 3 9 7.2l61.6 274.3c2.8 12.4-.2 25.3-8.2 35.3-7.8 9.8-19.5 15.5-32 15.5zm-135.7-18.5h135.7c6.9 0 13.3-3.1 17.7-8.6 4.5-5.6 6.1-12.8 4.6-19.7l-60-267.1H157.5l66.3 295.4z"/><path d="M279.2 443.7h-142c-11.8 0-23.1-5.2-31-14.1-8-9.1-11.6-21.2-10-33.1l37.4-277c.6-4.6 4.5-8 9.1-8h185.7c5.1 0 9.2 4.1 9.2 9.2s-4.1 9.2-9.2 9.2H150.8l-36.3 269c-.9 6.7 1.2 13.4 5.6 18.5 4.4 5.1 10.5 7.8 17.1 7.8h142c5.1 0 9.2 4.1 9.2 9.2s-4.1 9.3-9.2 9.3z"/><path d="M276.1 126.8c-5.1 0-9.2-4.1-9.2-9.2V99c0-13.1-10.8-24.5-23-24.5h-16c-12.2 0-22.5 11.2-22.5 24.5v18.5c0 5.1-4.1 9.2-9.2 9.2s-9.2-4.1-9.2-9.2V99c0-23.3 18.7-43 40.9-43h16c22.5 0 41.5 19.7 41.5 43v18.5c-.1 5.1-4.2 9.3-9.3 9.3z"/></svg>